<svg width="16" height="17" viewBox="0 0 16 17" fill="none" xmlns="http://www.w3.org/2000/svg">
<g id="Frame" clip-path="url(#clip0_0_649)">
<path id="Vector" d="M12.2427 11.3995L8 15.5L3.75734 11.3995C2.91823 10.5885 2.34679 9.55518 2.11529 8.43029C1.88378 7.3054 2.0026 6.13942 2.45673 5.0798C2.91086 4.02017 3.67989 3.1145 4.66659 2.4773C5.65328 1.8401 6.81332 1.5 8 1.5C9.18668 1.5 10.3467 1.8401 11.3334 2.4773C12.3201 3.1145 13.0891 4.02017 13.5433 5.0798C13.9974 6.13942 14.1162 7.3054 13.8847 8.43029C13.6532 9.55518 13.0818 10.5885 12.2427 11.3995ZM8 8.5876C8.35362 8.5876 8.69276 8.45183 8.94281 8.21016C9.19286 7.96849 9.33333 7.64071 9.33333 7.29894C9.33333 6.95716 9.19286 6.62939 8.94281 6.38772C8.69276 6.14604 8.35362 6.01027 8 6.01027C7.64638 6.01027 7.30724 6.14604 7.05719 6.38772C6.80714 6.62939 6.66667 6.95716 6.66667 7.29894C6.66667 7.64071 6.80714 7.96849 7.05719 8.21016C7.30724 8.45183 7.64638 8.5876 8 8.5876Z" fill="#BF00FF"/>
</g>
<defs>
<clipPath id="clip0_0_649">
<rect width="16" height="16" fill="white" transform="translate(0 0.5)"/>
</clipPath>
</defs>
</svg>
